<svg width="3555" height="2000" viewBox="0 0 3555 2000" fill="none" xmlns="http://www.w3.org/2000/svg">
<path d="M1938.27 541.562C1938.99 541.16 1939.85 541.135 1940.58 541.487L1940.73 541.562L1997.05 573.322C1998.69 574.249 1998.74 576.57 1997.2 577.584L1997.05 577.678L1940.73 609.438C1940.01 609.84 1939.15 609.865 1938.42 609.513L1938.27 609.438L1881.95 577.678C1880.31 576.751 1880.26 574.43 1881.8 573.416L1881.95 573.322L1938.27 541.562Z" fill="#D9D9D9" stroke="black" stroke-width="5"/>
<rect width="3555" height="2000" fill="#212336"/>
<circle cx="464" cy="252" r="50" fill="#934111"/>
<circle cx="3272" cy="1591" r="50" fill="#3D2E37"/>
<circle cx="738" cy="1886" r="50" fill="#3157AB"/>
<circle cx="3126" cy="543" r="50" fill="#D881A1"/>
<circle cx="364" cy="1591" r="50" fill="#36B0D2"/>
<path d="M814 252H2740" stroke="#453B3B" stroke-width="37" stroke-linecap="round"/>
<path d="M445 753L447.645 799.359L492.553 787.549L449.28 804.391L474.389 843.451L445 807.5L415.611 843.451L440.72 804.391L397.447 787.549L442.355 799.359L445 753Z" fill="#D9D9D9"/>
<path d="M3026 1046L3028.65 1092.36L3073.55 1080.55L3030.28 1097.39L3055.39 1136.45L3026 1100.5L2996.61 1136.45L3021.72 1097.39L2978.45 1080.55L3023.35 1092.36L3026 1046Z" fill="#D9D9D9"/>
<path d="M1995 1736L1997.65 1782.36L2042.55 1770.55L1999.28 1787.39L2024.39 1826.45L1995 1790.5L1965.61 1826.45L1990.72 1787.39L1947.45 1770.55L1992.35 1782.36L1995 1736Z" fill="#D9D9D9"/>
<g clip-path="url(#clip0_20_56)">
<mask id="mask0_20_56" style="mask-type:luminance" maskUnits="userSpaceOnUse" x="1945" y="1736" width="100" height="100">
<path d="M2045 1736H1945V1836H2045V1736Z" fill="white"/>
</mask>
<g mask="url(#mask0_20_56)">
<g opacity="0.7473">
<path d="M1995 1744.04L1997.22 1782.94L2034.91 1773.03L1998.59 1787.17L2019.66 1819.95L1995 1789.78L1970.34 1819.95L1991.41 1787.17L1955.09 1773.03L1992.78 1782.94L1995 1744.04Z" fill="#D9D9D9"/>
</g>
</g>
</g>
<path d="M849.58 799.856C849.495 801.989 848.769 803.568 847.404 804.592C846.039 805.531 844.503 806 842.796 806C841.175 805.915 839.724 805.317 838.444 804.208C837.249 803.099 836.695 801.477 836.78 799.344C837.121 787.995 837.292 779.376 837.292 773.488C837.292 768.368 837.249 762.693 837.164 756.464C837.079 750.235 836.993 744.005 836.908 737.776C836.823 731.547 836.78 725.872 836.78 720.752C836.78 718.619 837.42 717.04 838.7 716.016C839.98 714.907 841.473 714.352 843.18 714.352C844.887 714.352 846.38 714.907 847.66 716.016C848.94 717.04 849.58 718.619 849.58 720.752C849.58 726.64 849.665 735.003 849.836 745.84C850.007 756.677 850.049 766.533 849.964 775.408C849.964 784.197 849.836 792.347 849.58 799.856ZM899.221 806.64C892.906 806.213 887.402 804.933 882.709 802.8C878.016 800.667 874.432 797.979 871.957 794.736C869.482 791.493 867.69 788.507 866.581 785.776C865.472 783.045 864.789 780.357 864.533 777.712C864.277 774.981 864.405 771.483 864.917 767.216C865.6 763.291 866.965 759.536 869.013 755.952C871.146 752.368 873.834 749.253 877.077 746.608C880.405 743.877 884.202 741.872 888.469 740.592C892.821 739.227 897.472 738.843 902.421 739.44C907.37 740.037 911.594 741.403 915.093 743.536C918.592 745.584 921.578 748.229 924.053 751.472C926.186 754.203 927.509 756.251 928.021 757.616C928.448 758.981 928.874 760.261 929.301 761.456C929.642 762.736 930.026 764.187 930.453 765.808C930.965 767.429 931.264 768.923 931.349 770.288C931.52 773.787 930.197 776.347 927.381 777.968C926.272 778.395 925.077 778.608 923.797 778.608L901.909 778.992C886.549 779.077 878.869 779.248 878.869 779.504H878.485C880.789 788.379 887.957 793.243 899.989 794.096C903.317 794.267 906.09 794.096 908.309 793.584C910.784 792.901 912.576 792.304 913.685 791.792C914.794 791.195 916.16 790.427 917.781 789.488C919.744 788.805 921.408 788.848 922.773 789.616C924.224 790.299 925.205 791.408 925.717 792.944C926.314 794.48 926.357 796.059 925.845 797.68C925.333 799.301 924.181 800.624 922.389 801.648C921.024 802.416 919.616 803.056 918.165 803.568C916.117 804.421 913.6 805.189 910.613 805.872C907.626 806.469 903.829 806.725 899.221 806.64ZM878.741 766.96C883.69 766.704 896.533 766.448 917.269 766.192C916.501 763.632 915.264 761.2 913.557 758.896C910.144 754.971 905.92 752.709 900.885 752.112C895.594 751.429 890.944 752.581 886.933 755.568C882.922 758.469 880.192 762.267 878.741 766.96ZM981.624 803.952C978.552 805.147 975.096 805.829 971.256 806C963.32 806.341 956.749 804.251 951.544 799.728C947.107 796.059 944.248 791.493 942.968 786.032C941.688 780.571 941.645 775.664 942.84 771.312C944.035 766.96 945.869 762.693 948.344 758.512C951.501 753.051 955.256 748.528 959.608 744.944C964.045 741.36 968.867 739.141 974.072 738.288C979.363 737.435 984.952 738.459 990.84 741.36C991.523 741.701 992.248 742.213 993.016 742.896C993.869 743.579 994.595 744.176 995.192 744.688L996.856 746.352C997.368 746.864 997.624 747.163 997.624 747.248C998.989 748.443 999.715 749.979 999.8 751.856C1000.91 756.976 1001.63 762.352 1001.98 767.984C1002.15 770.8 1002.23 774.171 1002.23 778.096C1002.23 781.936 1002.23 785.819 1002.23 789.744C1002.32 793.584 1002.4 796.869 1002.49 799.6C1002.57 801.648 1001.98 803.227 1000.7 804.336C999.501 805.445 998.051 806 996.344 806C994.723 806.085 993.229 805.659 991.864 804.72C990.499 803.696 989.773 802.16 989.688 800.112V798.192C987.128 800.837 984.44 802.757 981.624 803.952ZM975.864 792.432C977.4 792.005 979.491 791.109 982.136 789.744C984.781 788.379 987.043 786.288 988.92 783.472C989.091 783.301 989.304 783.131 989.56 782.96C989.56 771.44 988.835 762.181 987.384 755.184C986.616 754.16 985.72 753.307 984.696 752.624C980.6 750.405 976.291 750.363 971.768 752.496C967.245 754.544 963.277 758.427 959.864 764.144C953.123 775.579 953.08 784.197 959.736 790C961.699 791.621 964.131 792.645 967.032 793.072C969.933 793.499 972.877 793.285 975.864 792.432ZM1027.88 806C1026.18 806 1024.68 805.445 1023.4 804.336C1022.12 803.141 1021.48 801.563 1021.48 799.6L1021.23 773.488C1021.14 767.6 1021.1 760.261 1021.1 751.472V743.92C1021.1 741.957 1021.7 740.421 1022.89 739.312C1024.09 738.203 1025.54 737.648 1027.24 737.648C1029.04 737.648 1030.57 738.245 1031.85 739.44C1033.22 740.549 1033.9 742.128 1033.9 744.176V748.016C1034.84 745.968 1036.59 744.219 1039.15 742.768C1042.65 740.635 1046.49 739.568 1050.67 739.568C1053.83 739.568 1056.26 740.08 1057.96 741.104C1059.67 742.128 1060.52 743.963 1060.52 746.608C1060.52 748.315 1060.01 749.765 1058.99 750.96C1057.96 752.069 1056.47 752.624 1054.51 752.624C1047.34 752.624 1042.39 753.605 1039.66 755.568C1038.12 756.592 1036.76 757.829 1035.56 759.28C1034.45 760.731 1033.9 762.139 1033.9 763.504L1034.16 779.504L1034.28 799.6C1034.28 801.563 1033.64 803.141 1032.36 804.336C1031.08 805.445 1029.59 806 1027.88 806ZM1076.69 806C1074.99 806 1073.49 805.445 1072.21 804.336C1070.93 803.141 1070.29 801.563 1070.29 799.6C1070.29 792.859 1070.25 787.056 1070.17 782.192C1070 767.685 1069.91 755.099 1069.91 744.432C1069.91 742.469 1070.51 740.933 1071.7 739.824C1072.9 738.715 1074.35 738.16 1076.05 738.16C1077.85 738.16 1079.38 738.757 1080.66 739.952C1082.03 741.061 1082.71 742.64 1082.71 744.688V748.656C1088 741.744 1094.96 738.288 1103.57 738.288C1111 738.288 1116.67 740.891 1120.6 746.096C1124.61 751.301 1126.61 758.299 1126.61 767.088C1126.61 776.816 1126.49 783.216 1126.23 786.288L1125.59 794.864L1125.21 800.368C1125.04 802.075 1124.35 803.44 1123.16 804.464C1121.96 805.488 1120.56 806 1118.93 806C1117.23 806 1115.73 805.445 1114.45 804.336C1113.17 803.141 1112.53 801.563 1112.53 799.6C1112.53 798.235 1112.83 793.499 1113.43 785.392C1113.86 779.845 1114.07 775.493 1114.07 772.336C1114.07 765.083 1113.05 759.749 1111 756.336C1108.95 752.837 1105.79 751.088 1101.53 751.088C1098.45 751.088 1095.25 752.027 1091.93 753.904C1088.68 755.781 1085.61 758.171 1082.71 761.072L1082.97 779.248L1083.09 799.6C1083.09 801.563 1082.45 803.141 1081.17 804.336C1079.89 805.445 1078.4 806 1076.69 806ZM1216.6 805.104C1205.33 807.835 1196.33 805.573 1189.59 798.32C1184.21 792.773 1180.88 785.648 1179.6 776.944C1178.67 770.117 1179.48 763.632 1182.04 757.488C1185.11 749.637 1189.97 743.835 1196.63 740.08C1197.99 739.312 1199.7 738.757 1201.75 738.416C1201.83 738.416 1202.43 738.373 1203.54 738.288C1203.97 738.203 1204.31 738.117 1204.56 738.032C1205.84 737.776 1207.12 737.904 1208.4 738.416C1209.09 738.416 1210.07 738.459 1211.35 738.544C1212.71 738.629 1214.04 738.757 1215.32 738.928C1216.6 739.013 1217.58 739.141 1218.26 739.312L1220.69 740.208C1221.72 740.549 1222.7 740.976 1223.64 741.488C1224.57 742 1225.6 742.597 1226.71 743.28C1229.52 745.157 1231.87 747.504 1233.75 750.32C1235.63 753.051 1237.12 755.995 1238.23 759.152C1239.34 762.224 1240.02 765.211 1240.28 768.112C1240.53 771.013 1240.4 773.488 1239.89 775.536C1239.12 780.144 1237.76 784.411 1235.8 788.336C1233.83 792.347 1231.1 795.888 1227.6 798.96C1224.19 802.032 1220.52 804.08 1216.6 805.104ZM1212.63 791.792C1215.87 791.365 1218.6 790.085 1220.82 787.952C1223.04 785.733 1224.7 783.088 1225.81 780.016C1226.92 776.859 1227.43 773.616 1227.35 770.288C1227.26 766.875 1226.58 763.717 1225.3 760.816C1224.02 757.915 1222.1 755.653 1219.54 754.032C1218.6 753.349 1217.83 752.88 1217.24 752.624C1216.64 752.283 1215.96 751.984 1215.19 751.728C1214.68 751.643 1213.78 751.557 1212.5 751.472C1211.31 751.387 1210.07 751.301 1208.79 751.216C1207.51 751.131 1206.61 751.088 1206.1 751.088C1205.84 751.088 1205.55 751.045 1205.2 750.96C1204.27 751.045 1203.75 751.088 1203.67 751.088L1202.77 751.344C1200.3 752.709 1198.16 754.672 1196.37 757.232C1194.67 759.707 1193.43 762.523 1192.66 765.68C1191.89 768.752 1191.81 771.867 1192.4 775.024C1193.34 780.827 1195.43 785.221 1198.68 788.208C1202.17 791.451 1206.83 792.645 1212.63 791.792ZM1263.87 806C1262.17 806 1260.67 805.445 1259.39 804.336C1258.11 803.141 1257.47 801.563 1257.47 799.6C1257.47 792.859 1257.43 787.056 1257.35 782.192C1257.18 767.685 1257.09 755.099 1257.09 744.432C1257.09 742.469 1257.69 740.933 1258.88 739.824C1260.08 738.715 1261.53 738.16 1263.23 738.16C1265.03 738.16 1266.56 738.757 1267.84 739.952C1269.21 741.061 1269.89 742.64 1269.89 744.688V748.656C1275.18 741.744 1282.14 738.288 1290.75 738.288C1298.18 738.288 1303.85 740.891 1307.78 746.096C1311.79 751.301 1313.79 758.299 1313.79 767.088C1313.79 776.816 1313.67 783.216 1313.41 786.288L1312.77 794.864L1312.39 800.368C1312.22 802.075 1311.53 803.44 1310.34 804.464C1309.14 805.488 1307.74 806 1306.11 806C1304.41 806 1302.91 805.445 1301.63 804.336C1300.35 803.141 1299.71 801.563 1299.71 799.6C1299.71 798.235 1300.01 793.499 1300.61 785.392C1301.04 779.845 1301.25 775.493 1301.25 772.336C1301.25 765.083 1300.23 759.749 1298.18 756.336C1296.13 752.837 1292.97 751.088 1288.71 751.088C1285.63 751.088 1282.43 752.027 1279.11 753.904C1275.86 755.781 1272.79 758.171 1269.89 761.072L1270.15 779.248L1270.27 799.6C1270.27 801.563 1269.63 803.141 1268.35 804.336C1267.07 805.445 1265.58 806 1263.87 806ZM1390.21 805.616C1389.7 805.445 1388.67 805.189 1387.14 804.848C1385.51 804.507 1384.15 804.123 1383.04 803.696C1380.74 802.843 1378.6 801.648 1376.64 800.112C1374.76 798.576 1373.18 796.357 1371.9 793.456C1370.97 791.152 1370.37 786.629 1370.11 779.888C1369.86 774.683 1369.81 767.984 1369.98 759.792C1369.98 758.256 1370.03 755.696 1370.11 752.112L1369.09 752.24C1366.95 752.411 1365.29 751.941 1364.1 750.832C1362.9 749.637 1362.22 748.229 1362.05 746.608C1361.88 744.987 1362.22 743.493 1363.07 742.128C1364.01 740.677 1365.5 739.781 1367.55 739.44L1370.5 739.184C1370.58 734.661 1370.71 730.096 1370.88 725.488C1370.97 723.355 1371.69 721.819 1373.06 720.88C1374.42 719.856 1375.91 719.387 1377.54 719.472C1379.24 719.472 1380.69 720.027 1381.89 721.136C1383.17 722.245 1383.77 723.867 1383.68 726L1383.3 738.16L1387.52 737.904C1389.65 737.819 1391.27 738.373 1392.38 739.568C1393.58 740.763 1394.22 742.213 1394.3 743.92C1394.47 745.541 1394.09 747.035 1393.15 748.4C1392.21 749.765 1390.68 750.533 1388.54 750.704L1382.91 750.96C1382.83 755.056 1382.78 758.043 1382.78 759.92C1382.61 767.941 1382.66 774.469 1382.91 779.504C1383 782.576 1383.17 785.051 1383.42 786.928C1383.68 788.805 1384.36 790.085 1385.47 790.768C1385.64 790.939 1386.28 791.195 1387.39 791.536C1388.59 791.877 1389.87 792.261 1391.23 792.688C1392.6 793.029 1393.62 793.328 1394.3 793.584C1396.27 794.181 1397.55 795.291 1398.14 796.912C1398.74 798.448 1398.78 800.027 1398.27 801.648C1397.76 803.184 1396.78 804.421 1395.33 805.36C1393.96 806.213 1392.26 806.299 1390.21 805.616ZM1465.17 799.856C1465.08 801.989 1464.36 803.568 1462.99 804.592C1461.71 805.531 1460.22 806 1458.51 806C1456.89 805.915 1455.44 805.36 1454.16 804.336C1452.97 803.227 1452.37 801.648 1452.37 799.6C1452.37 799.515 1452.63 795.504 1453.14 787.568C1453.65 778.864 1453.74 772.251 1453.39 767.728C1452.63 757.061 1448.7 751.472 1441.62 750.96C1437.86 750.704 1434.75 751.301 1432.27 752.752C1429.88 754.117 1427.54 756.549 1425.23 760.048C1425.06 760.304 1424.72 760.901 1424.21 761.84C1424.81 780.272 1425.11 792.901 1425.11 799.728C1425.11 801.861 1424.47 803.483 1423.19 804.592C1421.91 805.616 1420.41 806.128 1418.71 806.128C1417 806.128 1415.51 805.616 1414.23 804.592C1412.95 803.483 1412.31 801.861 1412.31 799.728C1412.31 795.803 1411.96 782.533 1411.28 759.92C1410.77 742.939 1410.68 729.456 1411.03 719.472C1411.11 717.424 1411.84 715.888 1413.2 714.864C1414.57 713.84 1416.06 713.371 1417.68 713.456C1419.39 713.456 1420.84 714.011 1422.03 715.12C1423.31 716.229 1423.91 717.851 1423.83 719.984C1423.74 722.288 1423.7 731.205 1423.7 746.736C1429.16 740.421 1435.56 737.563 1442.9 738.16C1457.06 739.355 1464.83 748.869 1466.19 766.704C1466.45 771.653 1466.54 775.963 1466.45 779.632C1466.28 783.472 1466.02 787.312 1465.68 791.152C1465.34 794.992 1465.17 797.893 1465.17 799.856ZM1515.7 806.64C1509.38 806.213 1503.88 804.933 1499.18 802.8C1494.49 800.667 1490.91 797.979 1488.43 794.736C1485.96 791.493 1484.17 788.507 1483.06 785.776C1481.95 783.045 1481.26 780.357 1481.01 777.712C1480.75 774.981 1480.88 771.483 1481.39 767.216C1482.07 763.291 1483.44 759.536 1485.49 755.952C1487.62 752.368 1490.31 749.253 1493.55 746.608C1496.88 743.877 1500.68 741.872 1504.94 740.592C1509.3 739.227 1513.95 738.843 1518.9 739.44C1523.85 740.037 1528.07 741.403 1531.57 743.536C1535.07 745.584 1538.05 748.229 1540.53 751.472C1542.66 754.203 1543.98 756.251 1544.5 757.616C1544.92 758.981 1545.35 760.261 1545.78 761.456C1546.12 762.736 1546.5 764.187 1546.93 765.808C1547.44 767.429 1547.74 768.923 1547.82 770.288C1547.99 773.787 1546.67 776.347 1543.86 777.968C1542.75 778.395 1541.55 778.608 1540.27 778.608L1518.38 778.992C1503.02 779.077 1495.34 779.248 1495.34 779.504H1494.96C1497.26 788.379 1504.43 793.243 1516.46 794.096C1519.79 794.267 1522.57 794.096 1524.78 793.584C1527.26 792.901 1529.05 792.304 1530.16 791.792C1531.27 791.195 1532.63 790.427 1534.26 789.488C1536.22 788.805 1537.88 788.848 1539.25 789.616C1540.7 790.299 1541.68 791.408 1542.19 792.944C1542.79 794.48 1542.83 796.059 1542.32 797.68C1541.81 799.301 1540.66 800.624 1538.86 801.648C1537.5 802.416 1536.09 803.056 1534.64 803.568C1532.59 804.421 1530.07 805.189 1527.09 805.872C1524.1 806.469 1520.3 806.725 1515.7 806.64ZM1495.22 766.96C1500.17 766.704 1513.01 766.448 1533.74 766.192C1532.98 763.632 1531.74 761.2 1530.03 758.896C1526.62 754.971 1522.39 752.709 1517.36 752.112C1512.07 751.429 1507.42 752.581 1503.41 755.568C1499.4 758.469 1496.67 762.267 1495.22 766.96ZM1628.63 832.24C1623.68 832.667 1618.9 832.112 1614.3 830.576C1609.77 829.04 1606.02 826.352 1603.03 822.512C1601.92 821.061 1600.98 819.269 1600.22 817.136C1599.53 815.003 1599.62 813.125 1600.47 811.504C1601.41 809.883 1602.69 808.859 1604.31 808.432C1605.93 808.005 1607.51 808.133 1609.05 808.816C1610.58 809.584 1611.65 810.864 1612.25 812.656C1612.42 813.339 1612.63 814.235 1612.89 815.344C1613.14 816.539 1614.08 817.691 1615.7 818.8C1619.54 820.165 1623.77 820.763 1628.38 820.592C1632.56 820.421 1635.76 819.525 1637.98 817.904C1640.19 816.368 1641.6 814.576 1642.2 812.528C1643.05 809.627 1643.74 805.019 1644.25 798.704C1641 802.117 1636.1 804.165 1629.53 804.848C1623.9 805.104 1618.86 804.293 1614.42 802.416C1609.9 800.624 1606.32 798.021 1603.67 794.608C1601.11 791.195 1599.23 787.397 1598.04 783.216C1596.84 779.205 1596.42 774.171 1596.76 768.112C1597.44 758.725 1601.11 751.173 1607.77 745.456C1615.19 739.568 1624.15 737.477 1634.65 739.184C1638.49 740.464 1641.52 742 1643.74 743.792C1643.82 740.379 1645.44 738.288 1648.6 737.52C1650.65 737.349 1652.27 737.819 1653.46 738.928C1654.74 740.037 1655.51 741.445 1655.77 743.152C1656.71 753.563 1657.26 766.277 1657.43 781.296C1657.52 789.829 1657.26 796.955 1656.66 802.672C1655.98 811.205 1653.98 817.563 1650.65 821.744C1648.43 824.56 1646.21 826.651 1643.99 828.016C1641.86 829.467 1639.55 830.448 1637.08 830.96C1634.6 831.557 1631.79 831.984 1628.63 832.24ZM1628.63 791.792C1631.79 791.877 1634.22 791.493 1635.93 790.64C1640.88 789.104 1643.74 785.051 1644.5 778.48C1644.93 773.445 1644.72 768.624 1643.86 764.016C1643.27 761.115 1641.52 758.597 1638.62 756.464C1636.91 755.099 1634.73 754.203 1632.09 753.776C1625.26 752.581 1620.01 753.605 1616.34 756.848C1612.84 759.664 1610.84 763.803 1610.33 769.264C1609.9 776.432 1611.31 782.021 1614.55 786.032C1617.88 789.957 1622.57 791.877 1628.63 791.792ZM1711.08 805.104C1699.81 807.835 1690.81 805.573 1684.07 798.32C1678.69 792.773 1675.36 785.648 1674.08 776.944C1673.15 770.117 1673.96 763.632 1676.52 757.488C1679.59 749.637 1684.45 743.835 1691.11 740.08C1692.47 739.312 1694.18 738.757 1696.23 738.416C1696.31 738.416 1696.91 738.373 1698.02 738.288C1698.45 738.203 1698.79 738.117 1699.04 738.032C1700.32 737.776 1701.6 737.904 1702.88 738.416C1703.57 738.416 1704.55 738.459 1705.83 738.544C1707.19 738.629 1708.52 738.757 1709.8 738.928C1711.08 739.013 1712.06 739.141 1712.74 739.312L1715.17 740.208C1716.2 740.549 1717.18 740.976 1718.12 741.488C1719.05 742 1720.08 742.597 1721.19 743.28C1724 745.157 1726.35 747.504 1728.23 750.32C1730.11 753.051 1731.6 755.995 1732.71 759.152C1733.82 762.224 1734.5 765.211 1734.76 768.112C1735.01 771.013 1734.88 773.488 1734.37 775.536C1733.6 780.144 1732.24 784.411 1730.28 788.336C1728.31 792.347 1725.58 795.888 1722.08 798.96C1718.67 802.032 1715 804.08 1711.08 805.104ZM1707.11 791.792C1710.35 791.365 1713.08 790.085 1715.3 787.952C1717.52 785.733 1719.18 783.088 1720.29 780.016C1721.4 776.859 1721.91 773.616 1721.83 770.288C1721.74 766.875 1721.06 763.717 1719.78 760.816C1718.5 757.915 1716.58 755.653 1714.02 754.032C1713.08 753.349 1712.31 752.88 1711.72 752.624C1711.12 752.283 1710.44 751.984 1709.67 751.728C1709.16 751.643 1708.26 751.557 1706.98 751.472C1705.79 751.387 1704.55 751.301 1703.27 751.216C1701.99 751.131 1701.09 751.088 1700.58 751.088C1700.32 751.088 1700.03 751.045 1699.68 750.96C1698.75 751.045 1698.23 751.088 1698.15 751.088L1697.25 751.344C1694.78 752.709 1692.64 754.672 1690.85 757.232C1689.15 759.707 1687.91 762.523 1687.14 765.68C1686.37 768.752 1686.29 771.867 1686.88 775.024C1687.82 780.827 1689.91 785.221 1693.16 788.208C1696.65 791.451 1701.31 792.645 1707.11 791.792ZM1745.17 825.584C1743.63 825.584 1742.39 825.072 1741.45 824.048C1740.51 823.024 1740.05 821.744 1740.05 820.208C1740.05 818.672 1740.77 816.923 1742.22 814.96C1742.99 813.851 1743.59 812.827 1744.01 811.888C1744.44 811.035 1744.65 810.096 1744.65 809.072C1744.65 807.792 1744.31 806 1743.63 803.696C1743.12 801.819 1742.86 800.581 1742.86 799.984C1742.86 798.277 1743.42 796.869 1744.53 795.76C1745.72 794.565 1747.09 793.968 1748.62 793.968C1751.86 793.968 1753.91 795.461 1754.77 798.448C1755.79 802.459 1756.3 805.829 1756.3 808.56C1756.3 810.437 1755.96 812.229 1755.28 813.936C1754.68 815.728 1753.78 817.861 1752.59 820.336C1750.8 823.835 1748.32 825.584 1745.17 825.584ZM1844.9 803.952C1841.83 805.147 1838.37 805.829 1834.53 806C1826.59 806.341 1820.02 804.251 1814.82 799.728C1810.38 796.059 1807.52 791.493 1806.24 786.032C1804.96 780.571 1804.92 775.664 1806.11 771.312C1807.31 766.96 1809.14 762.693 1811.62 758.512C1814.78 753.051 1818.53 748.528 1822.88 744.944C1827.32 741.36 1832.14 739.141 1837.35 738.288C1842.64 737.435 1848.23 738.459 1854.11 741.36C1854.8 741.701 1855.52 742.213 1856.29 742.896C1857.14 743.579 1857.87 744.176 1858.47 744.688L1860.13 746.352C1860.64 746.864 1860.9 747.163 1860.9 747.248C1862.26 748.443 1862.99 749.979 1863.07 751.856C1864.18 756.976 1864.91 762.352 1865.25 767.984C1865.42 770.8 1865.51 774.171 1865.51 778.096C1865.51 781.936 1865.51 785.819 1865.51 789.744C1865.59 793.584 1865.68 796.869 1865.76 799.6C1865.85 801.648 1865.25 803.227 1863.97 804.336C1862.78 805.445 1861.33 806 1859.62 806C1858 806.085 1856.5 805.659 1855.14 804.72C1853.77 803.696 1853.05 802.16 1852.96 800.112V798.192C1850.4 800.837 1847.71 802.757 1844.9 803.952ZM1839.14 792.432C1840.67 792.005 1842.77 791.109 1845.41 789.744C1848.06 788.379 1850.32 786.288 1852.19 783.472C1852.37 783.301 1852.58 783.131 1852.83 782.96C1852.83 771.44 1852.11 762.181 1850.66 755.184C1849.89 754.16 1848.99 753.307 1847.97 752.624C1843.87 750.405 1839.57 750.363 1835.04 752.496C1830.52 754.544 1826.55 758.427 1823.14 764.144C1816.4 775.579 1816.35 784.197 1823.01 790C1824.97 791.621 1827.41 792.645 1830.31 793.072C1833.21 793.499 1836.15 793.285 1839.14 792.432ZM1891.16 806C1889.45 806 1887.96 805.445 1886.68 804.336C1885.4 803.141 1884.76 801.563 1884.76 799.6C1884.76 792.859 1884.72 787.056 1884.63 782.192C1884.46 767.685 1884.37 755.099 1884.37 744.432C1884.37 742.469 1884.97 740.933 1886.17 739.824C1887.36 738.715 1888.81 738.16 1890.52 738.16C1892.31 738.16 1893.85 738.757 1895.13 739.952C1896.49 741.061 1897.17 742.64 1897.17 744.688V748.656C1902.47 741.744 1909.42 738.288 1918.04 738.288C1925.46 738.288 1931.14 740.891 1935.06 746.096C1939.07 751.301 1941.08 758.299 1941.08 767.088C1941.08 776.816 1940.95 783.216 1940.69 786.288L1940.05 794.864L1939.67 800.368C1939.5 802.075 1938.82 803.44 1937.62 804.464C1936.43 805.488 1935.02 806 1933.4 806C1931.69 806 1930.2 805.445 1928.92 804.336C1927.64 803.141 1927 801.563 1927 799.6C1927 798.235 1927.3 793.499 1927.89 785.392C1928.32 779.845 1928.53 775.493 1928.53 772.336C1928.53 765.083 1927.51 759.749 1925.46 756.336C1923.41 752.837 1920.26 751.088 1915.99 751.088C1912.92 751.088 1909.72 752.027 1906.39 753.904C1903.15 755.781 1900.08 758.171 1897.17 761.072L1897.43 779.248L1897.56 799.6C1897.56 801.563 1896.92 803.141 1895.64 804.336C1894.36 805.445 1892.87 806 1891.16 806ZM1957.65 831.728C1955.52 831.899 1953.85 831.387 1952.66 830.192C1951.46 829.083 1950.82 827.675 1950.74 825.968C1950.57 824.261 1950.95 822.683 1951.89 821.232C1952.83 819.867 1954.32 819.099 1956.37 818.928C1957.56 818.843 1959.1 818.715 1960.98 818.544C1962.85 818.373 1964.09 818.075 1964.69 817.648L1965.97 816.88C1968.02 815.856 1969.85 812.997 1971.47 808.304C1971.98 806.853 1972.5 805.829 1973.01 805.232C1972.41 804.549 1971.94 803.739 1971.6 802.8C1970.06 796.229 1966.91 786.501 1962.13 773.616C1957.86 762.267 1954.7 753.179 1952.66 746.352C1952.06 744.304 1952.23 742.597 1953.17 741.232C1954.11 739.867 1955.39 738.971 1957.01 738.544C1958.63 738.032 1960.21 738.117 1961.74 738.8C1963.28 739.397 1964.35 740.72 1964.94 742.768C1966.57 748.229 1969.64 757.019 1974.16 769.136L1979.02 782.448C1985 764.187 1990.46 750.491 1995.41 741.36C1996.43 739.483 1997.76 738.416 1999.38 738.16C2001.08 737.819 2002.66 738.075 2004.11 738.928C2005.56 739.696 2006.59 740.848 2007.18 742.384C2007.87 743.92 2007.7 745.627 2006.67 747.504C2004.45 751.6 2002.15 756.592 1999.76 762.48C1998.14 766.405 1996.77 769.861 1995.66 772.848C1994.64 775.749 1993.57 778.821 1992.46 782.064C1991.44 785.307 1990.2 789.317 1988.75 794.096C1988.24 795.803 1987.9 796.997 1987.73 797.68C1987.3 798.789 1986.7 801.008 1985.94 804.336C1985 807.493 1984.23 810.053 1983.63 812.016C1981.24 818.672 1978 823.621 1973.9 826.864C1972.71 827.803 1971.52 828.571 1970.32 829.168C1969.13 829.851 1967.89 830.32 1966.61 830.576C1966.1 830.747 1965.16 830.875 1963.79 830.96C1962.43 831.131 1961.06 831.301 1959.7 831.472C1958.42 831.643 1957.73 831.728 1957.65 831.728ZM2064.94 806C2063.32 806 2061.87 805.573 2060.59 804.72C2059.31 803.867 2058.46 802.757 2058.03 801.392C2056.75 796.869 2053.89 787.952 2049.46 774.64C2045.62 763.205 2042.8 753.776 2041.01 746.352C2040.33 744.389 2040.62 742.597 2041.9 740.976C2043.27 739.269 2045.1 738.416 2047.41 738.416C2050.65 738.416 2052.7 740.123 2053.55 743.536C2055.86 751.984 2058.63 760.987 2061.87 770.544C2063.15 774.555 2064.01 777.883 2064.43 780.528L2067.38 771.568L2069.17 766.192C2069.08 766.448 2070.02 763.504 2071.98 757.36C2072.5 755.824 2073.01 754.203 2073.52 752.496C2074.03 750.875 2074.59 749.211 2075.18 747.504C2076.64 743.493 2079.2 741.488 2082.86 741.488C2084.66 741.488 2086.11 742 2087.22 743.024C2088.41 744.048 2089.44 745.755 2090.29 748.144C2094.3 759.408 2098.14 771.397 2101.81 784.112L2104.62 772.592C2105.31 769.52 2106.08 766.192 2106.93 762.608C2108.64 755.44 2110.3 749.083 2111.92 743.536C2112.35 741.915 2113.12 740.635 2114.22 739.696C2115.33 738.757 2116.57 738.288 2117.94 738.288C2120.07 738.288 2121.73 739.099 2122.93 740.72C2124.12 742.341 2124.38 744.261 2123.7 746.48C2123.61 746.651 2123.27 748.187 2122.67 751.088C2121.73 755.269 2120.67 759.536 2119.47 763.888L2116.66 774.128C2113.41 786.245 2111.07 794.437 2109.62 798.704C2107.74 803.568 2105.14 806 2101.81 806C2098.05 806 2095.45 803.909 2094 799.728L2091.95 793.456C2089.99 787.653 2086.58 777.371 2081.71 762.608L2079.54 770.288C2075.61 783.771 2073.22 792.432 2072.37 796.272C2070.83 802.757 2068.36 806 2064.94 806ZM2191.14 799.856C2191.05 801.989 2190.33 803.568 2188.96 804.592C2187.68 805.531 2186.19 806 2184.48 806C2182.86 805.915 2181.41 805.36 2180.13 804.336C2178.94 803.227 2178.34 801.648 2178.34 799.6C2178.34 799.515 2178.6 795.504 2179.11 787.568C2179.62 778.864 2179.71 772.251 2179.36 767.728C2178.6 757.061 2174.67 751.472 2167.59 750.96C2163.83 750.704 2160.72 751.301 2158.24 752.752C2155.85 754.117 2153.51 756.549 2151.2 760.048C2151.03 760.304 2150.69 760.901 2150.18 761.84C2150.78 780.272 2151.08 792.901 2151.08 799.728C2151.08 801.861 2150.44 803.483 2149.16 804.592C2147.88 805.616 2146.38 806.128 2144.68 806.128C2142.97 806.128 2141.48 805.616 2140.2 804.592C2138.92 803.483 2138.28 801.861 2138.28 799.728C2138.28 795.803 2137.93 782.533 2137.25 759.92C2136.74 742.939 2136.65 729.456 2137 719.472C2137.08 717.424 2137.81 715.888 2139.17 714.864C2140.54 713.84 2142.03 713.371 2143.65 713.456C2145.36 713.456 2146.81 714.011 2148 715.12C2149.28 716.229 2149.88 717.851 2149.8 719.984C2149.71 722.288 2149.67 731.205 2149.67 746.736C2155.13 740.421 2161.53 737.563 2168.87 738.16C2183.03 739.355 2190.8 748.869 2192.16 766.704C2192.42 771.653 2192.51 775.963 2192.42 779.632C2192.25 783.472 2191.99 787.312 2191.65 791.152C2191.31 794.992 2191.14 797.893 2191.14 799.856ZM2241.67 806.64C2235.35 806.213 2229.85 804.933 2225.15 802.8C2220.46 800.667 2216.88 797.979 2214.4 794.736C2211.93 791.493 2210.14 788.507 2209.03 785.776C2207.92 783.045 2207.23 780.357 2206.98 777.712C2206.72 774.981 2206.85 771.483 2207.36 767.216C2208.04 763.291 2209.41 759.536 2211.46 755.952C2213.59 752.368 2216.28 749.253 2219.52 746.608C2222.85 743.877 2226.65 741.872 2230.91 740.592C2235.27 739.227 2239.92 738.843 2244.87 739.44C2249.82 740.037 2254.04 741.403 2257.54 743.536C2261.04 745.584 2264.02 748.229 2266.5 751.472C2268.63 754.203 2269.95 756.251 2270.47 757.616C2270.89 758.981 2271.32 760.261 2271.75 761.456C2272.09 762.736 2272.47 764.187 2272.9 765.808C2273.41 767.429 2273.71 768.923 2273.79 770.288C2273.96 773.787 2272.64 776.347 2269.83 777.968C2268.72 778.395 2267.52 778.608 2266.24 778.608L2244.35 778.992C2228.99 779.077 2221.31 779.248 2221.31 779.504H2220.93C2223.23 788.379 2230.4 793.243 2242.43 794.096C2245.76 794.267 2248.54 794.096 2250.75 793.584C2253.23 792.901 2255.02 792.304 2256.13 791.792C2257.24 791.195 2258.6 790.427 2260.23 789.488C2262.19 788.805 2263.85 788.848 2265.22 789.616C2266.67 790.299 2267.65 791.408 2268.16 792.944C2268.76 794.48 2268.8 796.059 2268.29 797.68C2267.78 799.301 2266.63 800.624 2264.83 801.648C2263.47 802.416 2262.06 803.056 2260.61 803.568C2258.56 804.421 2256.04 805.189 2253.06 805.872C2250.07 806.469 2246.27 806.725 2241.67 806.64ZM2221.19 766.96C2226.14 766.704 2238.98 766.448 2259.71 766.192C2258.95 763.632 2257.71 761.2 2256 758.896C2252.59 754.971 2248.36 752.709 2243.33 752.112C2238.04 751.429 2233.39 752.581 2229.38 755.568C2225.37 758.469 2222.64 762.267 2221.19 766.96ZM2295.27 806C2293.56 806 2292.07 805.445 2290.79 804.336C2289.51 803.141 2288.87 801.563 2288.87 799.6L2288.61 773.488C2288.53 767.6 2288.48 760.261 2288.48 751.472V743.92C2288.48 741.957 2289.08 740.421 2290.28 739.312C2291.47 738.203 2292.92 737.648 2294.63 737.648C2296.42 737.648 2297.96 738.245 2299.24 739.44C2300.6 740.549 2301.28 742.128 2301.28 744.176V748.016C2302.22 745.968 2303.97 744.219 2306.53 742.768C2310.03 740.635 2313.87 739.568 2318.05 739.568C2321.21 739.568 2323.64 740.08 2325.35 741.104C2327.06 742.128 2327.91 743.963 2327.91 746.608C2327.91 748.315 2327.4 749.765 2326.37 750.96C2325.35 752.069 2323.86 752.624 2321.89 752.624C2314.72 752.624 2309.78 753.605 2307.04 755.568C2305.51 756.592 2304.14 757.829 2302.95 759.28C2301.84 760.731 2301.28 762.139 2301.28 763.504L2301.54 779.504L2301.67 799.6C2301.67 801.563 2301.03 803.141 2299.75 804.336C2298.47 805.445 2296.98 806 2295.27 806ZM2366.41 806.64C2360.1 806.213 2354.59 804.933 2349.9 802.8C2345.21 800.667 2341.62 797.979 2339.15 794.736C2336.67 791.493 2334.88 788.507 2333.77 785.776C2332.66 783.045 2331.98 780.357 2331.72 777.712C2331.47 774.981 2331.59 771.483 2332.11 767.216C2332.79 763.291 2334.15 759.536 2336.2 755.952C2338.34 752.368 2341.02 749.253 2344.27 746.608C2347.59 743.877 2351.39 741.872 2355.66 740.592C2360.01 739.227 2364.66 738.843 2369.61 739.44C2374.56 740.037 2378.78 741.403 2382.28 743.536C2385.78 745.584 2388.77 748.229 2391.24 751.472C2393.38 754.203 2394.7 756.251 2395.21 757.616C2395.64 758.981 2396.06 760.261 2396.49 761.456C2396.83 762.736 2397.22 764.187 2397.64 765.808C2398.15 767.429 2398.45 768.923 2398.54 770.288C2398.71 773.787 2397.39 776.347 2394.57 777.968C2393.46 778.395 2392.27 778.608 2390.99 778.608L2369.1 778.992C2353.74 779.077 2346.06 779.248 2346.06 779.504H2345.67C2347.98 788.379 2355.15 793.243 2367.18 794.096C2370.51 794.267 2373.28 794.096 2375.5 793.584C2377.97 792.901 2379.77 792.304 2380.87 791.792C2381.98 791.195 2383.35 790.427 2384.97 789.488C2386.93 788.805 2388.6 788.848 2389.96 789.616C2391.41 790.299 2392.39 791.408 2392.91 792.944C2393.5 794.48 2393.55 796.059 2393.03 797.68C2392.52 799.301 2391.37 800.624 2389.58 801.648C2388.21 802.416 2386.81 803.056 2385.35 803.568C2383.31 804.421 2380.79 805.189 2377.8 805.872C2374.82 806.469 2371.02 806.725 2366.41 806.64ZM2345.93 766.96C2350.88 766.704 2363.72 766.448 2384.46 766.192C2383.69 763.632 2382.45 761.2 2380.75 758.896C2377.33 754.971 2373.11 752.709 2368.07 752.112C2362.78 751.429 2358.13 752.581 2354.12 755.568C2350.11 758.469 2347.38 762.267 2345.93 766.96ZM2485.87 803.952C2482.8 805.147 2479.35 805.829 2475.51 806C2467.57 806.341 2461 804.251 2455.79 799.728C2451.36 796.059 2448.5 791.493 2447.22 786.032C2445.94 780.571 2445.9 775.664 2447.09 771.312C2448.28 766.96 2450.12 762.693 2452.59 758.512C2455.75 753.051 2459.51 748.528 2463.86 744.944C2468.3 741.36 2473.12 739.141 2478.32 738.288C2483.61 737.435 2489.2 738.459 2495.09 741.36C2495.77 741.701 2496.5 742.213 2497.27 742.896C2498.12 743.579 2498.84 744.176 2499.44 744.688L2501.11 746.352C2501.62 746.864 2501.87 747.163 2501.87 747.248C2503.24 748.443 2503.96 749.979 2504.05 751.856C2505.16 756.976 2505.88 762.352 2506.23 767.984C2506.4 770.8 2506.48 774.171 2506.48 778.096C2506.48 781.936 2506.48 785.819 2506.48 789.744C2506.57 793.584 2506.65 796.869 2506.74 799.6C2506.82 801.648 2506.23 803.227 2504.95 804.336C2503.75 805.445 2502.3 806 2500.59 806C2498.97 806.085 2497.48 805.659 2496.11 804.72C2494.75 803.696 2494.02 802.16 2493.94 800.112V798.192C2491.38 800.837 2488.69 802.757 2485.87 803.952ZM2480.11 792.432C2481.65 792.005 2483.74 791.109 2486.39 789.744C2489.03 788.379 2491.29 786.288 2493.17 783.472C2493.34 783.301 2493.55 783.131 2493.81 782.96C2493.81 771.44 2493.08 762.181 2491.63 755.184C2490.87 754.16 2489.97 753.307 2488.95 752.624C2484.85 750.405 2480.54 750.363 2476.02 752.496C2471.5 754.544 2467.53 758.427 2464.11 764.144C2457.37 775.579 2457.33 784.197 2463.99 790C2465.95 791.621 2468.38 792.645 2471.28 793.072C2474.18 793.499 2477.13 793.285 2480.11 792.432ZM2532.13 806C2530.43 806 2528.93 805.445 2527.65 804.336C2526.37 803.141 2525.73 801.563 2525.73 799.6C2525.73 792.859 2525.69 787.056 2525.61 782.192C2525.44 767.685 2525.35 755.099 2525.35 744.432C2525.35 742.469 2525.95 740.933 2527.14 739.824C2528.34 738.715 2529.79 738.16 2531.49 738.16C2533.29 738.16 2534.82 738.757 2536.1 739.952C2537.47 741.061 2538.15 742.64 2538.15 744.688V748.656C2543.44 741.744 2550.4 738.288 2559.01 738.288C2566.44 738.288 2572.11 740.891 2576.04 746.096C2580.05 751.301 2582.05 758.299 2582.05 767.088C2582.05 776.816 2581.93 783.216 2581.67 786.288L2581.03 794.864L2580.65 800.368C2580.48 802.075 2579.79 803.44 2578.6 804.464C2577.4 805.488 2576 806 2574.37 806C2572.67 806 2571.17 805.445 2569.89 804.336C2568.61 803.141 2567.97 801.563 2567.97 799.6C2567.97 798.235 2568.27 793.499 2568.87 785.392C2569.3 779.845 2569.51 775.493 2569.51 772.336C2569.51 765.083 2568.49 759.749 2566.44 756.336C2564.39 752.837 2561.23 751.088 2556.97 751.088C2553.89 751.088 2550.69 752.027 2547.37 753.904C2544.12 755.781 2541.05 758.171 2538.15 761.072L2538.41 779.248L2538.53 799.6C2538.53 801.563 2537.89 803.141 2536.61 804.336C2535.33 805.445 2533.84 806 2532.13 806ZM2598.62 831.728C2596.49 831.899 2594.83 831.387 2593.63 830.192C2592.44 829.083 2591.8 827.675 2591.71 825.968C2591.54 824.261 2591.93 822.683 2592.86 821.232C2593.8 819.867 2595.3 819.099 2597.34 818.928C2598.54 818.843 2600.07 818.715 2601.95 818.544C2603.83 818.373 2605.07 818.075 2605.66 817.648L2606.94 816.88C2608.99 815.856 2610.83 812.997 2612.45 808.304C2612.96 806.853 2613.47 805.829 2613.98 805.232C2613.39 804.549 2612.92 803.739 2612.58 802.8C2611.04 796.229 2607.88 786.501 2603.1 773.616C2598.84 762.267 2595.68 753.179 2593.63 746.352C2593.03 744.304 2593.21 742.597 2594.14 741.232C2595.08 739.867 2596.36 738.971 2597.98 738.544C2599.61 738.032 2601.18 738.117 2602.72 738.8C2604.26 739.397 2605.32 740.72 2605.92 742.768C2607.54 748.229 2610.61 757.019 2615.14 769.136L2620 782.448C2625.97 764.187 2631.43 750.491 2636.38 741.36C2637.41 739.483 2638.73 738.416 2640.35 738.16C2642.06 737.819 2643.64 738.075 2645.09 738.928C2646.54 739.696 2647.56 740.848 2648.16 742.384C2648.84 743.92 2648.67 745.627 2647.65 747.504C2645.43 751.6 2643.13 756.592 2640.74 762.48C2639.11 766.405 2637.75 769.861 2636.64 772.848C2635.62 775.749 2634.55 778.821 2633.44 782.064C2632.42 785.307 2631.18 789.317 2629.73 794.096C2629.22 795.803 2628.87 796.997 2628.7 797.68C2628.28 798.789 2627.68 801.008 2626.91 804.336C2625.97 807.493 2625.21 810.053 2624.61 812.016C2622.22 818.672 2618.98 823.621 2614.88 826.864C2613.69 827.803 2612.49 828.571 2611.3 829.168C2610.1 829.851 2608.86 830.32 2607.58 830.576C2607.07 830.747 2606.13 830.875 2604.77 830.96C2603.4 831.131 2602.04 831.301 2600.67 831.472C2599.39 831.643 2598.71 831.728 2598.62 831.728ZM1635.45 959.616C1634.94 959.445 1633.91 959.189 1632.38 958.848C1630.75 958.507 1629.39 958.123 1628.28 957.696C1625.98 956.843 1623.84 955.648 1621.88 954.112C1620 952.576 1618.42 950.357 1617.14 947.456C1616.21 945.152 1615.61 940.629 1615.35 933.888C1615.1 928.683 1615.05 921.984 1615.22 913.792C1615.22 912.256 1615.27 909.696 1615.35 906.112L1614.33 906.24C1612.19 906.411 1610.53 905.941 1609.34 904.832C1608.14 903.637 1607.46 902.229 1607.29 900.608C1607.12 898.987 1607.46 897.493 1608.31 896.128C1609.25 894.677 1610.74 893.781 1612.79 893.44L1615.74 893.184C1615.82 888.661 1615.95 884.096 1616.12 879.488C1616.21 877.355 1616.93 875.819 1618.3 874.88C1619.66 873.856 1621.15 873.387 1622.78 873.472C1624.48 873.472 1625.93 874.027 1627.13 875.136C1628.41 876.245 1629.01 877.867 1628.92 880L1628.54 892.16L1632.76 891.904C1634.89 891.819 1636.51 892.373 1637.62 893.568C1638.82 894.763 1639.46 896.213 1639.54 897.92C1639.71 899.541 1639.33 901.035 1638.39 902.4C1637.45 903.765 1635.92 904.533 1633.78 904.704L1628.15 904.96C1628.07 909.056 1628.02 912.043 1628.02 913.92C1627.85 921.941 1627.9 928.469 1628.15 933.504C1628.24 936.576 1628.41 939.051 1628.66 940.928C1628.92 942.805 1629.6 944.085 1630.71 944.768C1630.88 944.939 1631.52 945.195 1632.63 945.536C1633.83 945.877 1635.11 946.261 1636.47 946.688C1637.84 947.029 1638.86 947.328 1639.54 947.584C1641.51 948.181 1642.79 949.291 1643.38 950.912C1643.98 952.448 1644.02 954.027 1643.51 955.648C1643 957.184 1642.02 958.421 1640.57 959.36C1639.2 960.213 1637.5 960.299 1635.45 959.616ZM1656.14 953.856C1655.97 947.456 1656.01 937.643 1656.27 924.416C1656.44 911.189 1656.52 902.528 1656.52 898.432C1656.52 896.299 1657.16 894.72 1658.44 893.696C1659.72 892.587 1661.22 892.032 1662.92 892.032C1664.63 892.032 1666.12 892.587 1667.4 893.696C1668.68 894.72 1669.32 896.299 1669.32 898.432C1669.32 902.528 1669.24 911.147 1669.07 924.288C1668.81 937.429 1668.77 947.2 1668.94 953.6C1668.94 955.648 1668.3 957.227 1667.02 958.336C1665.74 959.445 1664.24 960 1662.54 960C1660.83 960.085 1659.34 959.616 1658.06 958.592C1656.78 957.568 1656.14 955.989 1656.14 953.856ZM1668.04 869.888C1669.83 871.68 1670.6 873.557 1670.35 875.52C1670.18 877.483 1669.36 879.189 1667.91 880.64C1666.55 882.005 1664.88 882.816 1662.92 883.072C1660.96 883.243 1659.08 882.432 1657.29 880.64C1655.5 878.848 1654.73 876.971 1654.99 875.008C1655.24 873.045 1656.1 871.339 1657.55 869.888C1659 868.437 1660.7 867.627 1662.67 867.456C1664.63 867.2 1666.42 868.011 1668.04 869.888ZM1766.27 954.368C1766.27 953.685 1766.18 952.576 1766.01 951.04C1765.92 949.419 1765.8 947.883 1765.63 946.432C1765.54 944.981 1765.5 944.128 1765.5 943.872V936.576C1765.5 934.443 1765.54 931.968 1765.63 929.152C1765.71 926.336 1765.75 923.605 1765.75 920.96C1765.75 918.229 1765.54 915.84 1765.11 913.792C1764.6 910.805 1763.71 908.672 1762.43 907.392C1761.15 906.027 1759.18 905.344 1756.54 905.344C1750.65 905.429 1744.76 909.013 1738.87 916.096C1739.13 918.656 1739.26 923.605 1739.26 930.944C1739.26 936.32 1739.39 943.829 1739.64 953.472C1739.73 955.605 1739.13 957.227 1737.85 958.336C1736.66 959.36 1735.2 959.915 1733.5 960C1731.88 960 1730.38 959.488 1729.02 958.464C1727.65 957.44 1726.93 955.861 1726.84 953.728C1726.59 944.085 1726.46 936.491 1726.46 930.944V924.544C1726.46 924.117 1726.42 923.221 1726.33 921.856C1726.33 920.491 1726.33 919.467 1726.33 918.784C1726.24 917.845 1726.07 916.523 1725.82 914.816C1725.56 913.109 1725.31 911.872 1725.05 911.104C1724.37 908.715 1723.43 907.051 1722.23 906.112C1720.95 905.088 1719.03 904.704 1716.47 904.96C1713.66 905.216 1711.23 905.984 1709.18 907.264C1707.22 908.544 1705.21 910.592 1703.16 913.408C1702.74 913.92 1702.27 914.389 1701.75 914.816C1702.1 931.883 1702.1 944.896 1701.75 953.856C1701.67 955.989 1700.94 957.568 1699.58 958.592C1698.21 959.531 1696.68 960 1694.97 960C1693.35 959.915 1691.9 959.317 1690.62 958.208C1689.42 957.099 1688.87 955.477 1688.95 953.344C1689.12 943.872 1689.21 937.771 1689.21 935.04C1689.21 931.541 1689.17 927.573 1689.08 923.136C1689 918.699 1688.87 914.304 1688.7 909.952C1688.61 905.515 1688.57 901.504 1688.57 897.92C1688.57 896.299 1689.21 894.976 1690.49 893.952C1691.86 892.928 1693.39 892.373 1695.1 892.288C1696.8 892.117 1698.3 892.629 1699.58 893.824C1700.86 894.933 1701.46 896.896 1701.37 899.712C1705.21 895.189 1709.9 892.672 1715.45 892.16C1721.34 891.648 1726.24 892.971 1730.17 896.128C1732.22 897.749 1734.05 900.011 1735.67 902.912C1740.96 896.256 1747.92 892.672 1756.54 892.16C1762.85 892.075 1767.93 894.037 1771.77 898.048C1774.76 901.547 1776.76 906.027 1777.79 911.488C1778.21 914.133 1778.43 917.035 1778.43 920.192C1778.51 923.264 1778.51 926.251 1778.43 929.152C1778.34 932.053 1778.3 934.528 1778.3 936.576V943.616C1778.3 943.787 1778.34 944.555 1778.43 945.92C1778.51 947.2 1778.6 948.608 1778.68 950.144C1778.85 951.595 1778.98 952.661 1779.07 953.344C1779.15 955.477 1778.6 957.141 1777.4 958.336C1776.21 959.445 1774.76 960.043 1773.05 960.128C1771.43 960.213 1769.94 959.787 1768.57 958.848C1767.2 957.909 1766.44 956.416 1766.27 954.368ZM1828.62 960.64C1822.31 960.213 1816.8 958.933 1812.11 956.8C1807.42 954.667 1803.83 951.979 1801.36 948.736C1798.88 945.493 1797.09 942.507 1795.98 939.776C1794.87 937.045 1794.19 934.357 1793.93 931.712C1793.68 928.981 1793.8 925.483 1794.32 921.216C1795 917.291 1796.36 913.536 1798.41 909.952C1800.55 906.368 1803.23 903.253 1806.48 900.608C1809.8 897.877 1813.6 895.872 1817.87 894.592C1822.22 893.227 1826.87 892.843 1831.82 893.44C1836.77 894.037 1840.99 895.403 1844.49 897.536C1847.99 899.584 1850.98 902.229 1853.45 905.472C1855.59 908.203 1856.91 910.251 1857.42 911.616C1857.85 912.981 1858.27 914.261 1858.7 915.456C1859.04 916.736 1859.43 918.187 1859.85 919.808C1860.37 921.429 1860.66 922.923 1860.75 924.288C1860.92 927.787 1859.6 930.347 1856.78 931.968C1855.67 932.395 1854.48 932.608 1853.2 932.608L1831.31 932.992C1815.95 933.077 1808.27 933.248 1808.27 933.504H1807.88C1810.19 942.379 1817.36 947.243 1829.39 948.096C1832.72 948.267 1835.49 948.096 1837.71 947.584C1840.18 946.901 1841.98 946.304 1843.08 945.792C1844.19 945.195 1845.56 944.427 1847.18 943.488C1849.14 942.805 1850.81 942.848 1852.17 943.616C1853.62 944.299 1854.61 945.408 1855.12 946.944C1855.71 948.48 1855.76 950.059 1855.25 951.68C1854.73 953.301 1853.58 954.624 1851.79 955.648C1850.42 956.416 1849.02 957.056 1847.56 957.568C1845.52 958.421 1843 959.189 1840.01 959.872C1837.03 960.469 1833.23 960.725 1828.62 960.64ZM1808.14 920.96C1813.09 920.704 1825.93 920.448 1846.67 920.192C1845.9 917.632 1844.66 915.2 1842.96 912.896C1839.54 908.971 1835.32 906.709 1830.28 906.112C1824.99 905.429 1820.34 906.581 1816.33 909.568C1812.32 912.469 1809.59 916.267 1808.14 920.96Z" fill="white"/>
<defs>
<clipPath id="clip0_20_56">
<rect width="100" height="100" fill="white" transform="translate(1945 1736)"/>
</clipPath>
</defs>
</svg>
