<svg id="visual" viewBox="0 0 900 200" width="900" height="200" xmlns="http://www.w3.org/2000/svg" xmlns:xlink="http://www.w3.org/1999/xlink" version="1.1"><path d="M0 39L13.7 42.7C27.3 46.3 54.7 53.7 82 54C109.3 54.3 136.7 47.7 163.8 43C191 38.3 218 35.7 245.2 37.3C272.3 39 299.7 45 327 48.3C354.3 51.7 381.7 52.3 409 48.7C436.3 45 463.7 37 491 45.3C518.3 53.7 545.7 78.3 573 88.3C600.3 98.3 627.7 93.7 654.8 85.7C682 77.7 709 66.3 736.2 60.7C763.3 55 790.7 55 818 57C845.3 59 872.7 63 886.3 65L900 67L900 0L886.3 0C872.7 0 845.3 0 818 0C790.7 0 763.3 0 736.2 0C709 0 682 0 654.8 0C627.7 0 600.3 0 573 0C545.7 0 518.3 0 491 0C463.7 0 436.3 0 409 0C381.7 0 354.3 0 327 0C299.7 0 272.3 0 245.2 0C218 0 191 0 163.8 0C136.7 0 109.3 0 82 0C54.7 0 27.3 0 13.7 0L0 0Z" fill="#f7f0ff"></path><path d="M0 139L13.7 135C27.3 131 54.7 123 82 115.3C109.3 107.7 136.7 100.3 163.8 97.7C191 95 218 97 245.2 103.3C272.3 109.7 299.7 120.3 327 121C354.3 121.7 381.7 112.3 409 108C436.3 103.7 463.7 104.3 491 111C518.3 117.7 545.7 130.3 573 133.7C600.3 137 627.7 131 654.8 127.3C682 123.7 709 122.3 736.2 119.7C763.3 117 790.7 113 818 112.3C845.3 111.7 872.7 114.3 886.3 115.7L900 117L900 65L886.3 63C872.7 61 845.3 57 818 55C790.7 53 763.3 53 736.2 58.7C709 64.3 682 75.7 654.8 83.7C627.7 91.7 600.3 96.3 573 86.3C545.7 76.3 518.3 51.7 491 43.3C463.7 35 436.3 43 409 46.7C381.7 50.3 354.3 49.7 327 46.3C299.7 43 272.3 37 245.2 35.3C218 33.7 191 36.3 163.8 41C136.7 45.7 109.3 52.3 82 52C54.7 51.7 27.3 44.3 13.7 40.7L0 37Z" fill="#f5ecff"></path><path d="M0 165L13.7 165C27.3 165 54.7 165 82 160C109.3 155 136.7 145 163.8 139.3C191 133.7 218 132.3 245.2 136.7C272.3 141 299.7 151 327 155.3C354.3 159.7 381.7 158.3 409 158.3C436.3 158.3 463.7 159.7 491 162C518.3 164.3 545.7 167.7 573 166.7C600.3 165.7 627.7 160.3 654.8 155C682 149.7 709 144.3 736.2 146.3C763.3 148.3 790.7 157.7 818 159C845.3 160.3 872.7 153.7 886.3 150.3L900 147L900 115L886.3 113.7C872.7 112.3 845.3 109.7 818 110.3C790.7 111 763.3 115 736.2 117.7C709 120.3 682 121.7 654.8 125.3C627.7 129 600.3 135 573 131.7C545.7 128.3 518.3 115.7 491 109C463.7 102.3 436.3 101.7 409 106C381.7 110.3 354.3 119.7 327 119C299.7 118.3 272.3 107.7 245.2 101.3C218 95 191 93 163.8 95.7C136.7 98.3 109.3 105.7 82 113.3C54.7 121 27.3 129 13.7 133L0 137Z" fill="#f3e8ff"></path><path d="M0 177L13.7 178.7C27.3 180.3 54.7 183.7 82 182.3C109.3 181 136.7 175 163.8 170.7C191 166.3 218 163.7 245.2 164.7C272.3 165.7 299.7 170.3 327 171.7C354.3 173 381.7 171 409 172.7C436.3 174.3 463.7 179.7 491 182.7C518.3 185.7 545.7 186.3 573 186.7C600.3 187 627.7 187 654.8 183.7C682 180.3 709 173.7 736.2 172.7C763.3 171.7 790.7 176.3 818 175.7C845.3 175 872.7 169 886.3 166L900 163L900 145L886.3 148.3C872.7 151.7 845.3 158.3 818 157C790.7 155.7 763.3 146.3 736.2 144.3C709 142.3 682 147.7 654.8 153C627.7 158.3 600.3 163.7 573 164.7C545.7 165.7 518.3 162.3 491 160C463.7 157.7 436.3 156.3 409 156.3C381.7 156.3 354.3 157.7 327 153.3C299.7 149 272.3 139 245.2 134.7C218 130.3 191 131.7 163.8 137.3C136.7 143 109.3 153 82 158C54.7 163 27.3 163 13.7 163L0 163Z" fill="#ebd8ff"></path><path d="M0 201L13.7 201C27.3 201 54.7 201 82 201C109.3 201 136.7 201 163.8 201C191 201 218 201 245.2 201C272.3 201 299.7 201 327 201C354.3 201 381.7 201 409 201C436.3 201 463.7 201 491 201C518.3 201 545.7 201 573 201C600.3 201 627.7 201 654.8 201C682 201 709 201 736.2 201C763.3 201 790.7 201 818 201C845.3 201 872.7 201 886.3 201L900 201L900 161L886.3 164C872.7 167 845.3 173 818 173.7C790.7 174.3 763.3 169.7 736.2 170.7C709 171.7 682 178.3 654.8 181.7C627.7 185 600.3 185 573 184.7C545.7 184.3 518.3 183.7 491 180.7C463.7 177.7 436.3 172.3 409 170.7C381.7 169 354.3 171 327 169.7C299.7 168.3 272.3 163.7 245.2 162.7C218 161.7 191 164.3 163.8 168.7C136.7 173 109.3 179 82 180.3C54.7 181.7 27.3 178.3 13.7 176.7L0 175Z" fill="#e3c8ff"></path></svg>