<svg id="visual" viewBox="0 0 900 450" width="900" height="450" xmlns="http://www.w3.org/2000/svg" xmlns:xlink="http://www.w3.org/1999/xlink" version="1.1"><rect x="0" y="0" width="900" height="450" fill="#280131"></rect><defs><linearGradient id="grad1_0" x1="50%" y1="0%" x2="100%" y2="100%"><stop offset="10%" stop-color="#000000" stop-opacity="1"></stop><stop offset="90%" stop-color="#000000" stop-opacity="1"></stop></linearGradient></defs><defs><linearGradient id="grad1_1" x1="50%" y1="0%" x2="100%" y2="100%"><stop offset="10%" stop-color="#000000" stop-opacity="1"></stop><stop offset="90%" stop-color="#210028" stop-opacity="1"></stop></linearGradient></defs><defs><linearGradient id="grad1_2" x1="50%" y1="0%" x2="100%" y2="100%"><stop offset="10%" stop-color="#24002d" stop-opacity="1"></stop><stop offset="90%" stop-color="#210028" stop-opacity="1"></stop></linearGradient></defs><defs><linearGradient id="grad1_3" x1="50%" y1="0%" x2="100%" y2="100%"><stop offset="10%" stop-color="#24002d" stop-opacity="1"></stop><stop offset="90%" stop-color="#280131" stop-opacity="1"></stop></linearGradient></defs><defs><linearGradient id="grad2_0" x1="0%" y1="0%" x2="50%" y2="100%"><stop offset="10%" stop-color="#000000" stop-opacity="1"></stop><stop offset="90%" stop-color="#000000" stop-opacity="1"></stop></linearGradient></defs><defs><linearGradient id="grad2_1" x1="0%" y1="0%" x2="50%" y2="100%"><stop offset="10%" stop-color="#210028" stop-opacity="1"></stop><stop offset="90%" stop-color="#000000" stop-opacity="1"></stop></linearGradient></defs><defs><linearGradient id="grad2_2" x1="0%" y1="0%" x2="50%" y2="100%"><stop offset="10%" stop-color="#210028" stop-opacity="1"></stop><stop offset="90%" stop-color="#24002d" stop-opacity="1"></stop></linearGradient></defs><defs><linearGradient id="grad2_3" x1="0%" y1="0%" x2="50%" y2="100%"><stop offset="10%" stop-color="#280131" stop-opacity="1"></stop><stop offset="90%" stop-color="#24002d" stop-opacity="1"></stop></linearGradient></defs><g transform="translate(900, 0)"><path d="M0 315C-21.4 290.5 -42.9 266 -69.6 259.8C-96.4 253.7 -128.5 266 -148.5 257.2C-168.5 248.4 -176.4 218.6 -201.5 201.5C-226.6 184.4 -269 180 -272.8 157.5C-276.6 135 -241.8 94.2 -242.4 65C-243.1 35.7 -279 17.8 -315 0L0 0Z" fill="#26002f"></path><path d="M0 236.3C-16.1 217.9 -32.1 199.5 -52.2 194.9C-72.3 190.3 -96.4 199.5 -111.4 192.9C-126.4 186.3 -132.3 164 -151.1 151.1C-170 138.3 -201.8 135 -204.6 118.1C-207.4 101.2 -181.4 70.7 -181.8 48.7C-182.3 26.8 -209.3 13.4 -236.2 0L0 0Z" fill="#23002a"></path><path d="M0 157.5C-10.7 145.2 -21.4 133 -34.8 129.9C-48.2 126.9 -64.2 133 -74.2 128.6C-84.3 124.2 -88.2 109.3 -100.8 100.8C-113.3 92.2 -134.5 90 -136.4 78.8C-138.3 67.5 -120.9 47.1 -121.2 32.5C-121.5 17.8 -139.5 8.9 -157.5 0L0 0Z" fill="#200026"></path><path d="M0 78.8C-5.4 72.6 -10.7 66.5 -17.4 65C-24.1 63.4 -32.1 66.5 -37.1 64.3C-42.1 62.1 -44.1 54.7 -50.4 50.4C-56.7 46.1 -67.3 45 -68.2 39.4C-69.1 33.7 -60.5 23.6 -60.6 16.2C-60.8 8.9 -69.8 4.5 -78.7 0L0 0Z" fill="#000000"></path></g><g transform="translate(0, 450)"><path d="M0 -315C21.2 -288 42.5 -261 68.6 -256C94.7 -250.9 125.8 -267.8 154 -266.7C182.2 -265.6 207.7 -246.5 222.7 -222.7C237.8 -199 242.4 -170.6 253.7 -146.5C265.1 -122.4 283.3 -102.6 294.6 -78.9C305.9 -55.2 310.5 -27.6 315 0L0 0Z" fill="#26002f"></path><path d="M0 -236.2C15.9 -216 31.8 -195.8 51.4 -192C71 -188.2 94.3 -200.9 115.5 -200.1C136.7 -199.2 155.8 -184.9 167.1 -167.1C178.3 -149.2 181.8 -127.9 190.3 -109.9C198.8 -91.8 212.5 -77 221 -59.2C229.5 -41.4 232.9 -20.7 236.3 0L0 0Z" fill="#23002a"></path><path d="M0 -157.5C10.6 -144 21.2 -130.5 34.3 -128C47.4 -125.5 62.9 -133.9 77 -133.4C91.1 -132.8 103.9 -123.2 111.4 -111.4C118.9 -99.5 121.2 -85.3 126.9 -73.3C132.6 -61.2 141.6 -51.3 147.3 -39.5C153 -27.6 155.2 -13.8 157.5 0L0 0Z" fill="#200026"></path><path d="M0 -78.7C5.3 -72 10.6 -65.3 17.1 -64C23.7 -62.7 31.4 -67 38.5 -66.7C45.6 -66.4 51.9 -61.6 55.7 -55.7C59.4 -49.7 60.6 -42.6 63.4 -36.6C66.3 -30.6 70.8 -25.7 73.7 -19.7C76.5 -13.8 77.6 -6.9 78.8 0L0 0Z" fill="#000000"></path></g></svg>