<svg id="visual" viewBox="0 0 900 600" width="900" height="600" xmlns="http://www.w3.org/2000/svg" xmlns:xlink="http://www.w3.org/1999/xlink" version="1.1"><rect x="0" y="0" width="900" height="600" fill="#280131"></rect><defs><linearGradient id="grad1_0" x1="33.3%" y1="0%" x2="100%" y2="100%"><stop offset="20%" stop-color="#000000" stop-opacity="1"></stop><stop offset="80%" stop-color="#000000" stop-opacity="1"></stop></linearGradient></defs><defs><linearGradient id="grad1_1" x1="33.3%" y1="0%" x2="100%" y2="100%"><stop offset="20%" stop-color="#000000" stop-opacity="1"></stop><stop offset="80%" stop-color="#210028" stop-opacity="1"></stop></linearGradient></defs><defs><linearGradient id="grad1_2" x1="33.3%" y1="0%" x2="100%" y2="100%"><stop offset="20%" stop-color="#24002d" stop-opacity="1"></stop><stop offset="80%" stop-color="#210028" stop-opacity="1"></stop></linearGradient></defs><defs><linearGradient id="grad1_3" x1="33.3%" y1="0%" x2="100%" y2="100%"><stop offset="20%" stop-color="#24002d" stop-opacity="1"></stop><stop offset="80%" stop-color="#280131" stop-opacity="1"></stop></linearGradient></defs><defs><linearGradient id="grad2_0" x1="0%" y1="0%" x2="66.7%" y2="100%"><stop offset="20%" stop-color="#000000" stop-opacity="1"></stop><stop offset="80%" stop-color="#000000" stop-opacity="1"></stop></linearGradient></defs><defs><linearGradient id="grad2_1" x1="0%" y1="0%" x2="66.7%" y2="100%"><stop offset="20%" stop-color="#210028" stop-opacity="1"></stop><stop offset="80%" stop-color="#000000" stop-opacity="1"></stop></linearGradient></defs><defs><linearGradient id="grad2_2" x1="0%" y1="0%" x2="66.7%" y2="100%"><stop offset="20%" stop-color="#210028" stop-opacity="1"></stop><stop offset="80%" stop-color="#24002d" stop-opacity="1"></stop></linearGradient></defs><defs><linearGradient id="grad2_3" x1="0%" y1="0%" x2="66.7%" y2="100%"><stop offset="20%" stop-color="#280131" stop-opacity="1"></stop><stop offset="80%" stop-color="#24002d" stop-opacity="1"></stop></linearGradient></defs><g transform="translate(900, 0)"><path d="M0 378.6C-24 343.3 -48 308 -82 306.2C-116.1 304.4 -160.3 336 -189.3 327.9C-218.3 319.8 -232.3 272 -231.2 231.2C-230.2 190.4 -214.2 156.7 -239.9 138.5C-265.6 120.3 -333.1 117.8 -363.2 97.3C-393.3 76.8 -385.9 38.4 -378.6 0L0 0Z" fill="#26002f"></path><path d="M0 283.9C-18 257.5 -36 231 -61.5 229.6C-87.1 228.3 -120.2 252 -142 245.9C-163.7 239.8 -174.2 204 -173.4 173.4C-172.6 142.8 -160.6 117.5 -179.9 103.9C-199.2 90.3 -249.8 88.3 -272.4 73C-294.9 57.6 -289.4 28.8 -283.9 0L0 0Z" fill="#23002a"></path><path d="M0 189.3C-12 171.7 -24 154 -41 153.1C-58.1 152.2 -80.1 168 -94.6 163.9C-109.2 159.9 -116.1 136 -115.6 115.6C-115.1 95.2 -107.1 78.3 -119.9 69.3C-132.8 60.2 -166.6 58.9 -181.6 48.7C-196.6 38.4 -193 19.2 -189.3 0L0 0Z" fill="#200026"></path><path d="M0 94.6C-6 85.8 -12 77 -20.5 76.5C-29 76.1 -40.1 84 -47.3 82C-54.6 79.9 -58.1 68 -57.8 57.8C-57.5 47.6 -53.5 39.2 -60 34.6C-66.4 30.1 -83.3 29.4 -90.8 24.3C-98.3 19.2 -96.5 9.6 -94.6 0L0 0Z" fill="#000000"></path></g><g transform="translate(0, 600)"><path d="M0 -378.6C35.9 -377.5 71.8 -376.3 94 -350.6C116.1 -324.9 124.5 -274.7 149 -258.1C173.5 -241.5 214 -258.5 254.6 -254.6C295.1 -250.7 335.6 -225.8 327.9 -189.3C320.2 -152.7 264.2 -104.4 264.7 -70.9C265.1 -37.4 321.8 -18.7 378.6 0L0 0Z" fill="#26002f"></path><path d="M0 -283.9C26.9 -283.1 53.8 -282.2 70.5 -263C87.1 -243.7 93.4 -206 111.7 -193.6C130.1 -181.1 160.5 -193.8 190.9 -190.9C221.3 -188 251.7 -169.4 245.9 -142C240.1 -114.5 198.2 -78.3 198.5 -53.2C198.8 -28.1 241.4 -14 283.9 0L0 0Z" fill="#23002a"></path><path d="M0 -189.3C17.9 -188.7 35.9 -188.2 47 -175.3C58.1 -162.5 62.3 -137.3 74.5 -129C86.7 -120.7 107 -129.2 127.3 -127.3C147.5 -125.3 167.8 -112.9 163.9 -94.6C160.1 -76.4 132.1 -52.2 132.3 -35.5C132.5 -18.7 160.9 -9.4 189.3 0L0 0Z" fill="#200026"></path><path d="M0 -94.6C9 -94.4 17.9 -94.1 23.5 -87.7C29 -81.2 31.1 -68.7 37.2 -64.5C43.4 -60.4 53.5 -64.6 63.6 -63.6C73.8 -62.7 83.9 -56.5 82 -47.3C80 -38.2 66.1 -26.1 66.2 -17.7C66.3 -9.4 80.5 -4.7 94.6 0L0 0Z" fill="#000000"></path></g></svg>