<svg width="282" height="164" viewBox="0 0 282 164" fill="none" xmlns="http://www.w3.org/2000/svg">
<path d="M223.375 63.8542L274.994 115.473C280.071 120.55 278.527 126.024 271.545 127.7L135.414 160.383C128.432 162.059 118.657 159.302 113.58 154.225L61.9616 102.606L223.375 63.8542Z" fill="#F9BC60" stroke="#B37427" stroke-width="6"/>
<path d="M146.734 3.21319C153.715 1.53713 163.491 4.29398 168.567 9.37079L220.186 60.9896L58.7728 99.7415L7.15396 48.1227C2.07714 43.0459 3.62105 37.5716 10.6024 35.8955L146.734 3.21319Z" fill="#F9BC60" stroke="#B37427" stroke-width="6"/>
<rect x="-5.03843" y="-1.42098" width="46" height="46" rx="13" transform="matrix(0.97237 -0.233445 0.707107 0.707107 81.8656 36.7453)" fill="#C2A2F9" stroke="#7C3AED" stroke-width="6"/>
<rect x="-5.03843" y="-1.42098" width="46" height="46" rx="13" transform="matrix(0.97237 -0.233445 0.707107 0.707107 139.866 95.7455)" fill="#C2A2F9" stroke="#7C3AED" stroke-width="6"/>
</svg>
