<svg width="3555" height="2000" viewBox="0 0 3555 2000" fill="none" xmlns="http://www.w3.org/2000/svg">
<line x1="1012" y1="1827.5" x2="3218.07" y2="1827.5" stroke="#7D7D7D"/>
<path d="M1938.27 541.562C1938.99 541.16 1939.85 541.135 1940.58 541.487L1940.73 541.562L1997.05 573.322C1998.69 574.249 1998.74 576.57 1997.2 577.584L1997.05 577.678L1940.73 609.438C1940.01 609.84 1939.15 609.865 1938.42 609.513L1938.27 609.438L1881.95 577.678C1880.31 576.751 1880.26 574.43 1881.8 573.416L1881.95 573.322L1938.27 541.562Z" fill="#D9D9D9" stroke="black" stroke-width="5"/>
<rect width="3555" height="2000" fill="#212336"/>
<circle cx="464" cy="252" r="50" fill="#934111"/>
<circle cx="3272" cy="1591" r="50" fill="#3D2E37"/>
<circle cx="738" cy="1886" r="50" fill="#3157AB"/>
<circle cx="3126" cy="543" r="50" fill="#D881A1"/>
<circle cx="364" cy="1591" r="50" fill="#36B0D2"/>
<path d="M814 252H2740" stroke="#453B3B" stroke-width="37" stroke-linecap="round"/>
<path d="M445 753L447.645 799.359L492.553 787.549L449.28 804.391L474.389 843.451L445 807.5L415.611 843.451L440.72 804.391L397.447 787.549L442.355 799.359L445 753Z" fill="#D9D9D9"/>
<path d="M3026 1046L3028.65 1092.36L3073.55 1080.55L3030.28 1097.39L3055.39 1136.45L3026 1100.5L2996.61 1136.45L3021.72 1097.39L2978.45 1080.55L3023.35 1092.36L3026 1046Z" fill="#D9D9D9"/>
<path d="M1995 1736L1997.65 1782.36L2042.55 1770.55L1999.28 1787.39L2024.39 1826.45L1995 1790.5L1965.61 1826.45L1990.72 1787.39L1947.45 1770.55L1992.35 1782.36L1995 1736Z" fill="#D9D9D9"/>
<g clip-path="url(#clip0_21_57)">
<mask id="mask0_21_57" style="mask-type:luminance" maskUnits="userSpaceOnUse" x="1945" y="1736" width="100" height="100">
<path d="M2045 1736H1945V1836H2045V1736Z" fill="white"/>
</mask>
<g mask="url(#mask0_21_57)">
<g opacity="0.7473">
<path d="M1995 1744.04L1997.22 1782.94L2034.91 1773.03L1998.59 1787.17L2019.66 1819.95L1995 1789.78L1970.34 1819.95L1991.41 1787.17L1955.09 1773.03L1992.78 1782.94L1995 1744.04Z" fill="#D9D9D9"/>
</g>
</g>
</g>
<defs>
<clipPath id="clip0_21_57">
<rect width="100" height="100" fill="white" transform="translate(1945 1736)"/>
</clipPath>
</defs>
</svg>
