<?xml version="1.0" standalone="no"?><svg xmlns="http://www.w3.org/2000/svg" viewBox="0 0 1440 320"><path fill="#D8B4FE" fill-opacity="5" d="M0,128L8,133.3C16,139,32,149,48,154.7C64,160,80,160,96,154.7C112,149,128,139,144,138.7C160,139,176,149,192,160C208,171,224,181,240,208C256,235,272,277,288,293.3C304,309,320,299,336,256C352,213,368,139,384,133.3C400,128,416,192,432,229.3C448,267,464,277,480,261.3C496,245,512,203,528,181.3C544,160,560,160,576,165.3C592,171,608,181,624,197.3C640,213,656,235,672,224C688,213,704,171,720,149.3C736,128,752,128,768,154.7C784,181,800,235,816,261.3C832,288,848,288,864,282.7C880,277,896,267,912,250.7C928,235,944,213,960,213.3C976,213,992,235,1008,256C1024,277,1040,299,1056,288C1072,277,1088,235,1104,224C1120,213,1136,235,1152,218.7C1168,203,1184,149,1200,117.3C1216,85,1232,75,1248,69.3C1264,64,1280,64,1296,96C1312,128,1328,192,1344,192C1360,192,1376,128,1392,133.3C1408,139,1424,213,1432,250.7L1440,288L1440,0L1432,0C1424,0,1408,0,1392,0C1376,0,1360,0,1344,0C1328,0,1312,0,1296,0C1280,0,1264,0,1248,0C1232,0,1216,0,1200,0C1184,0,1168,0,1152,0C1136,0,1120,0,1104,0C1088,0,1072,0,1056,0C1040,0,1024,0,1008,0C992,0,976,0,960,0C944,0,928,0,912,0C896,0,880,0,864,0C848,0,832,0,816,0C800,0,784,0,768,0C752,0,736,0,720,0C704,0,688,0,672,0C656,0,640,0,624,0C608,0,592,0,576,0C560,0,544,0,528,0C512,0,496,0,480,0C464,0,448,0,432,0C416,0,400,0,384,0C368,0,352,0,336,0C320,0,304,0,288,0C272,0,256,0,240,0C224,0,208,0,192,0C176,0,160,0,144,0C128,0,112,0,96,0C80,0,64,0,48,0C32,0,16,0,8,0L0,0Z"></path></svg>